<?xml version="1.0" encoding="UTF-8"?>
<svg width="1291px" height="1807px" viewBox="0 0 1291 1807" version="1.1" xmlns="http://www.w3.org/2000/svg" xmlns:xlink="http://www.w3.org/1999/xlink">
    <!-- Generator: Sketch 52.3 (67297) - http://www.bohemiancoding.com/sketch -->
    <title>Orange</title>
    <desc>Created with Sketch.</desc>
    <defs>
        <path d="M573.377389,1089.09123 C505.126154,1080.46601 438.717911,1080.46601 342.897353,1032.45839 C305.952763,1014.20551 222.883622,1014.96851 253.520323,1167.13126 C285.462087,1325.77583 347.808425,1530.25636 420.840445,1622.29399 C499.025717,1720.82594 505.126154,1684.07627 505.126154,1671.71798 C505.126154,1638.98354 477.148392,1549.17977 482.104501,1536.67772 C487.06061,1524.17567 511.790539,1555.69441 636.973414,1555.69441 C720.428664,1555.69441 767.181994,1554.09862 777.233405,1550.90702 C825.934683,1643.19103 861.953131,1689.33303 885.288749,1689.33303 C908.624367,1689.33303 916.113039,1666.98668 907.754766,1622.29399 C865.149645,1445.35283 849.018152,1285.33432 859.360285,1142.23845 C874.873484,927.59464 908.901432,654.3436 1066.91475,357.094682 C1052.17233,270.531338 985.601495,120.4046 809.429215,0.0545583584 C647.511565,26.0671349 503.213293,96.0579876 376.534399,210.027116 C319.694701,426.799342 291.274852,561.050902 291.274852,612.781795 C453.285308,470.959833 644.003081,562.904739 692.881917,623.538127 C741.760752,684.171514 782.742104,827.232763 765.018603,916.298448 C756.445454,971.696273 738.005543,999.215234 726.166109,1010.89848 C735.625433,1023.01633 765.018603,1032.45839 799.117669,1042.34242 C749.943442,1058.87077 710.372382,1046.93942 659.420611,1018.39872 C608.468839,989.858018 595.49773,911.062885 564.753227,911.062885 C548.61873,911.062885 505.126154,989.324705 627.926304,1083.91116 C653.017621,1104.94848 710.081409,1122.44336 799.117669,1136.39581 C711.514109,1152.31538 636.26735,1136.54718 573.377389,1089.09123 Z" id="path-1"></path>
        <path d="M846.956525,191.089112 C756.32518,74.1700964 659.27219,10.4960153 555.797555,0.0668682712 C589.364231,52.6710853 606.85242,90.2824154 587.772719,117.127324 C568.693019,143.972233 460.245872,99.0197113 389.950575,38.4579339 C402.043963,89.2741686 449.820219,121.880903 441.693844,142.145498 C433.56747,162.410093 314.369073,118.479367 215.851786,91.4926877 C117.334499,64.5060087 59.4736712,58.4000195 0.707502157,62.8876757 C53.0871131,75.4149325 91.4281552,92.7798336 164.88659,113.405987 C238.345024,134.03214 494.899253,216.580139 488.162707,244.877103 C479.579732,280.930022 425.887981,280.930022 425.887981,292.725671 C425.887981,319.032621 524.237505,377.415539 643.234875,384.575831 C622.809748,352.024053 605.343611,316.591383 610.581861,267.034816 C615.820112,217.478249 667.619784,187.077017 712.95914,238.069692 C758.298496,289.062367 746.141474,303.354026 790.924031,329.533708 C823.721668,308.523822 842.399166,262.375623 846.956525,191.089112 Z" id="path-3"></path>
    </defs>
    <g id="Orange" stroke="none" stroke-width="1" fill="none" fill-rule="evenodd">
        <g>
            <path d="M427.97303,601.369791 C440.328637,522.719748 470.144112,404.708856 517.419454,247.337113 C623.343202,164.867715 705.325553,108.828262 763.366508,79.2187563 C821.407462,49.6092505 902.544032,23.2029984 1006.77622,0 C1064.70575,35.4167257 1118.86672,85.4937594 1169.25915,150.231101 C1219.65157,214.968443 1260.23185,300.921011 1291,408.088807 C1193.52895,595.750259 1127.96865,795.982595 1094.31909,1008.78581 C1043.84476,1327.99064 1134.966,1677.37984 1134.966,1724.36079 C1134.966,1771.34174 1131.60681,1790.48606 1094.31909,1802.21753 C1057.03137,1813.949 1028.76607,1805.92912 989.966292,1757.52542 C972.623639,1735.89003 954.62087,1703.04811 935.957984,1658.99968 C869.079619,1666.18217 820.994186,1668.43109 791.701685,1665.74642 C762.409184,1663.06176 733.12161,1658.23676 703.838961,1651.27141 C708.183635,1687.53787 710.355971,1716.53432 710.355971,1738.26076 C709.573678,1756.92071 704.039465,1773.67039 685.019766,1783.02838 C666.000067,1792.38637 630.188653,1786.0424 599.17781,1748.72122 C526.096128,1660.76829 520.703108,1640.06181 473.245365,1539.50861 C441.606869,1472.47314 416.496873,1388.791 397.915374,1288.46221 C353.227902,1295.79348 307.642302,1291.40209 261.158573,1275.28804 C206.669402,1256.39882 186.938838,1228.56265 161.552158,1189.16743 C136.165478,1149.77221 125.356044,1113.7745 128.531186,1069.47599 C131.706329,1025.17748 143.951858,990.765717 175.772809,990.765717 C230.295864,990.765717 230.295864,1065.36197 277.905164,1103.97712 C309.644696,1129.72055 341.960894,1139.61082 374.853756,1133.64794 C375.929076,1110.76532 383.616282,1089.37467 397.915374,1069.47599 C412.214467,1049.57731 430.463736,1034.87465 452.66318,1025.36801 C446.112804,1019.92792 443.449086,1010.45574 444.672028,996.951469 C445.89497,983.447195 451.22406,973.971945 460.659299,968.525719 C282.540218,912.381132 162.491536,871.258436 100.513254,845.157631 C38.5349716,819.056826 5.78665335,796.05108 2.26829923,776.140395 C-10.1342449,754.307305 28.323928,743.39076 117.642818,743.39076 C247.196721,743.39076 350.640125,768.612108 427.97303,819.054806 C415.617423,752.581505 415.617423,680.019833 427.97303,601.369791 Z" id="Base" fill="#000000"></path>
            <g id="Body" transform="translate(173.000000, 61.000000)">
                <path d="M210.892871,1101.96728 C210.892871,1144.24037 213.202951,1170.64233 217.823109,1181.17317 C193.608109,1185.50318 111.438729,1197.78597 57.9228198,1147.03609 C4.40691067,1096.28622 0.780840251,1048.52116 0.780840251,1001.67928 C0.780840251,988.001929 4.4946606,980.123903 11.9223013,978.045203 C17.5471647,975.568086 23.0674743,981.410718 28.4832304,995.573099 C36.6068644,1016.81667 49.2590949,1064.38735 96.762959,1092.60199 C128.432202,1111.41175 166.475506,1114.53351 210.892871,1101.96728 Z" id="Arm-right" stroke="#979797" fill="#F57623"></path>
                <mask id="mask-2" fill="white">
                    <use xlink:href="#path-1"></use>
                </mask>
                <use stroke="#979797" fill="#F57623" xlink:href="#path-1"></use>
                <path d="M821.220544,-37.5527103 C771.46833,106.15412 746.592223,189.614691 746.592223,212.829002 C808.621325,170.277717 924.543751,277.571412 852.481626,625.160564 C754.699005,991.693158 723.067228,1144.19345 810.960614,1607.20793 C833.573687,1676.47252 855.208741,1711.64886 875.865777,1712.73694 C915.887404,1719.66589 935.898217,1714.72256 935.898217,1697.90696 C935.898217,1681.09136 926.707493,1605.14914 908.326045,1470.08029 L887.717338,1203.25241 L895.836547,974.659388 L945.318157,739.003479 L1005.30089,567.874571 L1059.6416,440.117155 L1087.63216,382.201509 L1059.6416,268.143187 L988.445243,130.8457 L908.326045,28.9827618 L821.220544,-37.5527103 Z" id="Path-2" fill="#AE281C" mask="url(#mask-2)"></path>
            </g>
            <g id="Eye-right" transform="translate(535.000000, 146.000000)">
                <ellipse id="Right-eye" fill="#000000" transform="translate(88.311184, 240.909966) rotate(10.000000) translate(-88.311184, -240.909966) " cx="88.3111838" cy="240.909966" rx="58.5" ry="148"></ellipse>
                <ellipse id="Oval" fill="#FFFFFF" transform="translate(110.794330, 192.671643) rotate(12.000000) translate(-110.794330, -192.671643) " cx="110.79433" cy="192.671643" rx="18" ry="49"></ellipse>
                <path d="M107.970054,91.6552558 C116.863769,71.4736422 121.490315,32.4488423 85.385409,18.7050802 C49.2805029,4.96131809 10.974979,51.7686504 10.483066,58.9020646 C9.99115306,66.0354788 11.9431813,84.281759 40.23868,69.9828928 C72.8779899,53.488922 82.1332149,65.9134455 107.970054,91.6552558 Z" id="Eyebrow" fill="#000000" transform="translate(62.344638, 53.924272) rotate(-20.000000) translate(-62.344638, -53.924272) "></path>
            </g>
            <g id="Eye-left" transform="translate(695.000000, 74.000000)">
                <ellipse id="Left-eye" fill="#000000" transform="translate(83.500000, 264.000000) rotate(10.000000) translate(-83.500000, -264.000000) " cx="83.5" cy="264" rx="58.5" ry="148"></ellipse>
                <ellipse id="Oval" fill="#FFFFFF" transform="translate(103.000000, 208.000000) rotate(12.000000) translate(-103.000000, -208.000000) " cx="103" cy="208" rx="18" ry="49"></ellipse>
                <path d="M205.27096,85.9759566 C217.310088,71.4831336 213.177472,19.171952 172.038025,3.3971507 C130.898579,-12.3776506 94.1901898,37.6856586 94.1901898,48.3825323 C94.1901898,59.0794059 95.8539065,77.5128121 128.094986,61.1008739 C165.285587,42.1694409 181.435279,45.5759996 205.27096,85.9759566 Z" id="Eyebrow" fill="#000000"></path>
            </g>
            <g id="Mouth" transform="translate(70.000000, 651.000000)">
                <g id="Fire" transform="translate(0.000000, 72.000000)">
                    <mask id="mask-4" fill="white">
                        <use xlink:href="#path-3"></use>
                    </mask>
                    <use id="Path-3" fill="#FF0000" xlink:href="#path-3"></use>
                    <path d="M856.740699,192.930257 C808.050059,151.759425 729.666471,123.249344 691.13913,123.249344 C672.177117,123.249344 690.278214,153.077108 680.354953,168.060879 C664.284332,189.526232 579.94566,122.642931 527.95201,126.591436 C517.898553,132.48794 616.742685,167.96368 623.505415,190.377418 C554.670869,182.604461 417.162226,152.443775 368.445411,160.839539 C345.986529,169.938368 532.791261,195.152878 623.505415,236.557392 C649.091562,236.557392 670.6893,237.521082 688.29863,239.448462 L737.665082,300.778112 L772.846542,340.516787 L803.773113,358.836956 L831.80019,317.286351 L854.758736,261.599451 C859.798545,235.586387 860.459199,212.696655 856.740699,192.930257 Z" id="Path-4" fill="#F57623" mask="url(#mask-4)"></path>
                    <path d="M834.474051,297.080223 C830.526357,289.903627 816.858358,287.533298 793.470052,289.969236 C770.081747,292.405174 750.600462,284.479478 735.026198,266.192149 C749.53173,266.192149 758.165259,263.637076 760.926783,258.526931 C746.490561,251.198485 732.783424,253.607601 719.851603,232.45674 C706.919782,211.305878 703.835087,191.743453 669.640973,191.743453 C678.178576,184.868884 698.34813,166.60657 727.200224,198.83694 C750.796861,225.196494 769.679482,233.861297 783.848086,224.831349 C781.694207,219.081508 773.818505,212.32594 760.220979,204.564644 C753.972,200.997806 800.171142,192.932053 822.429531,209.012788 C837.268458,219.733278 847.196145,228.628896 852.212593,235.699641 L834.474051,297.080223 Z" id="Path-5" fill="#F8E71C" mask="url(#mask-4)"></path>
                </g>
                <path d="M814.468106,154.834347 C819.08645,135.342777 741.25721,-16.8470663 578.149087,2.22281436 C479.947403,13.7041211 445.735,36.8668592 415.120905,77.8000338 C433.337354,87.8905604 511.160893,136.725743 550.626166,150.266754 C533.377159,100.511708 490.908059,82.6156247 526.15148,51.0104181 C561.394902,19.4052114 691.244595,43.5468441 814.468106,154.834347 Z" id="Path-6" fill="#3B191A"></path>
            </g>
            <g id="Dots" transform="translate(456.000000, 161.000000)">
                <g id="Pink-dots" transform="translate(399.000000, 236.000000)" fill="#B11844" stroke="#B00032">
                    <circle id="Oval-2" cx="23" cy="23" r="23"></circle>
                    <ellipse id="Oval-2" cx="153" cy="447.5" rx="17" ry="11.5"></ellipse>
                    <ellipse id="Oval-2" cx="72.5" cy="744.5" rx="12.5" ry="11.5"></ellipse>
                    <ellipse id="Oval-2" transform="translate(113.500000, 975.500000) rotate(26.000000) translate(-113.500000, -975.500000) " cx="113.5" cy="975.5" rx="12.5" ry="11.5"></ellipse>
                    <ellipse id="Oval-2" transform="translate(71.283245, 1079.283245) rotate(45.000000) translate(-71.283245, -1079.283245) " cx="71.2832449" cy="1079.28324" rx="12.5" ry="10.5279858"></ellipse>
                    <ellipse id="Oval-2" transform="translate(176.000000, 117.500000) rotate(-12.000000) translate(-176.000000, -117.500000) " cx="176" cy="117.5" rx="10" ry="12.5"></ellipse>
                </g>
                <g id="Yellow-dots" fill="#F8E71C">
                    <ellipse id="Oval-3" cx="216.5" cy="77" rx="4.5" ry="4"></ellipse>
                    <circle id="Oval-3" cx="421" cy="8" r="8"></circle>
                    <path d="M643,77 C647.418278,77 653,71.418278 653,67 C653,62.581722 649.418278,59 645,59 C640.581722,59 635,64.581722 635,69 C635,73.418278 638.581722,77 643,77 Z" id="Oval-3"></path>
                    <path d="M733.961061,193.971755 C738.779298,193.971755 744.866298,188.390033 744.866298,183.971755 C744.866298,179.553477 740.960345,175.971755 736.142108,175.971755 C731.323871,175.971755 725.236871,181.553477 725.236871,185.971755 C725.236871,190.390033 729.142824,193.971755 733.961061,193.971755 Z" id="Oval-3" transform="translate(735.051584, 184.971755) rotate(-82.000000) translate(-735.051584, -184.971755) "></path>
                    <ellipse id="Oval-4" transform="translate(362.000000, 428.000000) rotate(-17.000000) translate(-362.000000, -428.000000) " cx="362" cy="428" rx="8" ry="5"></ellipse>
                    <ellipse id="Oval-5" transform="translate(538.500000, 544.500000) rotate(-26.000000) translate(-538.500000, -544.500000) " cx="538.5" cy="544.5" rx="6.5" ry="4.5"></ellipse>
                    <ellipse id="Oval-5" transform="translate(587.894762, 772.761273) rotate(57.000000) translate(-587.894762, -772.761273) " cx="587.894762" cy="772.761273" rx="11.0733999" ry="6.50133961"></ellipse>
                    <ellipse id="Oval-6" cx="8" cy="1149" rx="8" ry="7"></ellipse>
                    <ellipse id="Oval-7" cx="165" cy="1156.5" rx="9" ry="7.5"></ellipse>
                    <ellipse id="Oval-8" cx="247" cy="1164.5" rx="4" ry="4.5"></ellipse>
                    <ellipse id="Oval-9" cx="112" cy="1075" rx="5" ry="4"></ellipse>
                    <circle id="Oval-10" cx="87" cy="1133" r="5"></circle>
                    <ellipse id="Oval-11" cx="110" cy="1339.5" rx="9" ry="7.5"></ellipse>
                    <ellipse id="Oval-12" cx="214.5" cy="1367" rx="6.5" ry="5"></ellipse>
                    <ellipse id="Oval-13" cx="177.5" cy="1491.5" rx="7.5" ry="5.5"></ellipse>
                    <circle id="Oval-14" cx="121" cy="1441" r="5"></circle>
                    <ellipse id="Oval-15" cx="416.5" cy="1382.5" rx="4.5" ry="5.5"></ellipse>
                    <circle id="Oval-16" cx="311" cy="1082" r="2"></circle>
                    <circle id="Oval-17" cx="598.5" cy="1562.5" r="2.5"></circle>
                    <ellipse id="Oval-18" cx="417.5" cy="1209" rx="4.5" ry="4"></ellipse>
                    <ellipse id="Oval-35" cx="522.5" cy="178" rx="3.5" ry="4"></ellipse>
                    <ellipse id="Oval-36" cx="192" cy="426" rx="3" ry="2"></ellipse>
                    <ellipse id="Oval-38" cx="662" cy="299" rx="6" ry="5"></ellipse>
                    <ellipse id="Oval-37" cx="482.5" cy="354" rx="3.5" ry="2"></ellipse>
                </g>
                <g id="Green-dots" transform="translate(0.000000, 21.000000)" fill="#7ED321">
                    <ellipse id="Oval-34" transform="translate(526.000000, 1078.500000) rotate(23.000000) translate(-526.000000, -1078.500000) " cx="526" cy="1078.5" rx="13" ry="9.5"></ellipse>
                    <ellipse id="Oval-19" cx="79.5" cy="1212.5" rx="10.5" ry="9.5"></ellipse>
                    <ellipse id="Oval-20" cx="215" cy="1239.5" rx="12" ry="11.5"></ellipse>
                    <ellipse id="Oval-21" cx="177.5" cy="1028" rx="7.5" ry="6"></ellipse>
                    <ellipse id="Oval-22" cx="10" cy="1013" rx="10" ry="9"></ellipse>
                    <ellipse id="Oval-23" cx="36" cy="921.5" rx="7" ry="4.5"></ellipse>
                    <ellipse id="Oval-24" cx="323.5" cy="1150.5" rx="5.5" ry="6.5"></ellipse>
                    <ellipse id="Oval-25" transform="translate(533.000000, 1376.500000) rotate(-40.000000) translate(-533.000000, -1376.500000) " cx="533" cy="1376.5" rx="5" ry="8.5"></ellipse>
                    <circle id="Oval-26" cx="303" cy="1332" r="6"></circle>
                    <circle id="Oval-27" cx="213" cy="1534" r="5"></circle>
                    <ellipse id="Oval-28" cx="535" cy="843" rx="4" ry="5"></ellipse>
                    <ellipse id="Oval-29" cx="678" cy="362" rx="6" ry="5"></ellipse>
                    <ellipse id="Oval-30" cx="518.5" cy="20" rx="5.5" ry="6"></ellipse>
                    <ellipse id="Oval-31" cx="323.5" cy="7" rx="5.5" ry="7"></ellipse>
                    <ellipse id="Oval-32" cx="683.5" cy="96.5" rx="5.5" ry="3.5"></ellipse>
                    <circle id="Oval-33" cx="367.5" cy="1272.5" r="5.5"></circle>
                </g>
            </g>
        </g>
    </g>
</svg>