<?xml version="1.0" encoding="UTF-8"?>
<svg width="1275px" height="1536px" viewBox="0 0 1275 1536" version="1.1" xmlns="http://www.w3.org/2000/svg" xmlns:xlink="http://www.w3.org/1999/xlink">
    <!-- Generator: Sketch 52.3 (67297) - http://www.bohemiancoding.com/sketch -->
    <title>Green</title>
    <desc>Created with Sketch.</desc>
    <defs>
        <path d="M188.586239,748.256545 C108.134931,659.812739 39.4875699,600.381953 0.783210867,516.633989 C22.3243551,303.320606 247.600181,76.91224 391.308133,0.607960543 C454.628679,13.840754 833.42217,89.6848039 886.765844,505.791483 C887.393941,510.690947 906.910926,490.330696 944.355768,460.041013 C981.800611,429.75133 1033.72817,364.531865 1067.17672,368.23195 C1100.62527,371.932036 1112.6451,394.430204 1106.07128,424.839207 C1099.49747,455.248209 1026.69025,472.726303 968.051842,516.633989 C921.343112,551.608888 892.814635,588.380159 892.871422,591.581357 C917.035483,823.876368 893.797555,1051.45713 823.157641,1274.32364 C900.776677,1330.89878 931.866872,1369.6603 916.428228,1390.6082 C900.989583,1411.5561 862.439197,1394.96148 800.777069,1340.82436 C629.090549,1363.45385 516.240961,1369.28808 462.228304,1358.32706 C456.435613,1350.51414 449.652147,1352.82097 446.705559,1354.35566 C438.339982,1358.71277 366.591797,1438.79577 338.722031,1429.1156 C317.804692,1421.85026 338.969537,1399.86111 370.564241,1365.30995 C403.92261,1328.83009 450.332379,1294.55913 450.332379,1202.94979 C449.732771,1166.10274 439.122529,1125.81042 421.415989,1083.75554 C427.000219,1055.35247 424.618359,1036.26648 418.633206,1029.15159 C411.628656,1020.82488 403.228012,1019.75154 390.943689,1021.45203 C389.693724,1021.84937 388.306434,1022.18856 386.781818,1022.46961 C391.924278,1020.77869 394.78328,1019.80984 394.882625,1019.75154 C434.17216,1001.48965 495.080632,948.595003 510.672826,935.363253 C526.265019,922.131502 535.087296,919.019938 528.705111,935.363253 C513.58405,974.084829 457.222341,1015.41397 440.851681,1025.92878 C435.390565,1029.43643 426.429052,1034.52517 427.000219,1042.27875 C427.571387,1050.03233 434.033458,1053.20205 442.811443,1052.53248 C451.589429,1051.86292 476.347617,1047.12554 509.511369,1037.54638 C656.513749,995.085605 747.679893,893.946966 753.732125,682.053076 C759.784356,470.159185 639.667222,420.002836 611.912646,402.149911 C584.158069,384.296987 557.897971,387.736325 535.472273,424.703337 C513.046576,461.670348 506.739882,528.800509 479.566017,574.422512 C440.009341,570.26709 313.884007,582.626478 269.762771,614.892989 C227.08036,646.107266 220.289881,717.387977 188.586239,748.256545 Z M284.307762,857.850991 C274.053565,843.68013 251.95788,817.56034 237.293095,800.283792 C269.667269,786.757561 285.771855,774.258337 310.356029,754.001301 C334.940203,733.744264 359.879929,741.291894 365.515812,751.819949 C371.151694,762.348003 370.796741,779.604206 360.103694,793.430798 C349.410647,807.25739 338.866131,828.173618 284.307762,857.850991 Z" id="path-1"></path>
        <path d="M851.849681,82.7908512 C846.169511,254.408365 768.815871,364.136423 619.78876,411.975024 C647.281474,379.894118 675.06153,361.002304 675.06153,326.094356 C675.06153,284.964044 642.54524,290.250521 608.956873,316.1295 C575.368507,342.00848 503.208188,413.743312 410.332703,423.952666 C317.457218,434.16202 279.289905,381.662406 214.904618,381.662406 C168.148061,378.468778 125.119337,390.859904 85.8184441,418.835786 C85.8184441,406.982054 113.608616,337.617585 179.518921,308.796405 C258.227059,274.379005 318.587599,317.697544 401.933796,284.964044 C472.783948,257.138258 510.151318,199.775923 513.363257,180.548325 C516.575197,161.320727 511.991646,141.39962 496.76906,125.902505 C481.546474,110.405389 448.28736,109.305965 423.945366,122.660107 C399.603372,136.014249 336.639165,192.817833 302.41466,185.340434 C362.166928,146.742263 368.353982,75.790782 396.149674,44.0225168 C423.945366,12.2542517 499.916852,-2.19959183 646.809222,0.564857966 C708.771026,1.73095187 777.117846,29.1396163 851.849681,82.7908512 Z M518.683234,442.189149 C520.836443,459.481741 520.836443,494.82797 495.463948,507.257543 C470.091452,519.687115 440.120983,498.412368 418.835044,498.412368 C404.644418,498.412368 396.355798,500.021884 393.969186,503.240916 C398.127053,483.22624 409.573393,473.218902 428.308207,473.218902 C456.410428,473.218902 479.273968,482.215607 518.683234,442.189149 Z M217.316591,221.939357 C198.156468,222.322475 181.317219,226.56122 166.798845,234.655592 C145.021283,246.79715 112.711126,298.674798 69.5082584,291.948328 C26.3053903,285.221858 2.45922877,227.979975 0.221234749,211.149221 C20.3255822,221.554431 50.7501384,227.30954 79.6004755,227.30954 C108.450813,227.30954 136.748743,199.075019 169.154115,199.075019 C190.757697,199.075019 206.811856,206.696465 217.316591,221.939357 Z" id="path-3"></path>
    </defs>
    <g id="Symbols" stroke="none" stroke-width="1" fill="none" fill-rule="evenodd">
        <g id="Green">
            <g>
                <g id="Base" fill="#000000">
                    <path d="M523.39384,0.849836805 C362.211736,86.3666156 89.731301,390.531244 82.3577629,581.256783 C117.430693,636.828045 203.970057,730.206412 295.097907,831.737745 C297.919746,834.881736 266.589029,841.750691 273.310578,851.964548 C295.097907,885.071902 329.426015,870.690946 336.646168,874.69237 C343.86632,878.693795 372.304849,908.37553 386.799821,926.281909 C388.83907,928.801097 367.977923,933.27845 336.646168,932.255213 C311.960416,931.449021 279.936958,924.657267 253.235647,928.422161 C192.644383,936.965548 149.645525,966.169678 107.525063,1024.35914 C79.8307564,1062.61885 54.7846601,1130.87439 71.8951353,1141.58865 C79.1462731,1144.25663 85.472489,1138.3344 91.249513,1132.60372 C116.353983,1107.70063 164.434149,1070.04804 213.900172,1067.7282 C323.902983,1062.56933 320.83573,1148.07438 496.42138,1097.94927 C509.218017,1125.14267 454.191239,1102.10122 423.555022,1118.70043 C400.149835,1131.38176 386.593967,1159.31728 397.497895,1173.61414 C415.812269,1197.62731 429.445506,1180.65373 439.438512,1180.65373 C465.381035,1180.65373 465.381035,1199.33713 534.767936,1187.47703 C541.142739,1208.86511 544.811526,1229.76116 544.811526,1250.17369 C544.811526,1376.9114 423.555022,1411.99745 423.555022,1486.39414 C423.555022,1560.79083 523.542009,1533.09528 541.92513,1518.26391 C573.140148,1493.07985 589.618267,1482.33425 605.427721,1447.11756 C666.00804,1459.40195 774.293311,1455.07482 930.283533,1434.13618 C962.702402,1467.08813 995.12631,1489.04481 1027.55526,1500.00624 C1055.94398,1509.60201 1088.25159,1506.45608 1104.28481,1486.39414 C1120.31804,1466.3322 1118.46986,1434.20431 1104.28481,1403.99665 C1084.56394,1375.46633 1057.29497,1346.94744 1022.47789,1318.43998 C1077.01584,1112.5539 1093.68774,888.591284 1072.4936,646.552123 C1071.6866,637.336144 1114.7029,607.090391 1161.61842,577.557899 C1208.53394,548.025408 1302.53313,503.043074 1266.74071,444.1104 C1227.12802,378.887591 1188.24223,405.586405 1161.61842,417.918713 C1134.99461,430.251021 1050.61375,527.913839 1049.32133,521.185752 C966.361434,89.3126859 597.343611,14.587778 523.39384,0.849836805 Z"></path>
                    <path d="M262.622412,885.998324 C262.622412,868.014726 246.474256,843.910342 202.986285,838.776423 C159.498313,833.642504 135.447592,862.433511 93.3910284,866.019922 C51.3344649,869.606334 19.1492558,836.085125 4.6882317,855.83517 C-9.77279242,875.585214 16.707114,918.451569 34.4047035,939.46947 C52.102293,960.487372 81.1457351,979.048157 110.276558,975.13497 C153.785436,969.290358 195.948386,914.666401 217.407609,907.445659 C238.866833,900.224917 242.981738,904.07053 248.408808,901.844937 C258.658058,897.641812 262.622412,891.85138 262.622412,885.998324 Z" id="Path-2"></path>
                </g>
                <g id="Body" transform="translate(141.000000, 59.000000)">
                    <mask id="mask-2" fill="white">
                        <use xlink:href="#path-1"></use>
                    </mask>
                    <use id="Green-body" fill="#9ADD48" xlink:href="#path-1"></use>
                    <g id="Dots" mask="url(#mask-2)">
                        <g transform="translate(129.229209, 64.130606)">
                            <g id="Pink" transform="translate(0.000000, 181.140834)">
                                <ellipse id="Oval" stroke="#B00032" stroke-width="2" fill="#B11844" cx="243.849899" cy="16.8764752" rx="16.8559838" ry="16.8764752"></ellipse>
                                <ellipse id="Oval" stroke="#B00032" stroke-width="2" fill="#B11844" cx="723.68357" cy="187.891424" rx="16.8559838" ry="16.8764752"></ellipse>
                                <ellipse id="Oval" stroke="#B00032" stroke-width="2" fill="#B11844" cx="632.099391" cy="796.007081" rx="14.0466531" ry="14.0637293"></ellipse>
                                <ellipse id="Oval" stroke="#B00032" stroke-width="2" fill="#B11844" cx="648.393509" cy="892.20299" rx="10.1135903" ry="10.1258851"></ellipse>
                                <ellipse id="Oval" stroke="#B00032" stroke-width="2" fill="#B11844" cx="732.673428" cy="859.575138" rx="5.61866126" ry="5.62549174"></ellipse>
                                <ellipse id="Oval" stroke="#B00032" stroke-width="2" fill="#B11844" cx="135.971602" cy="103.509048" rx="15.7322515" ry="15.7513769"></ellipse>
                                <ellipse id="Oval" stroke="#B00032" stroke-width="2" fill="#B11844" cx="11.2373225" cy="361.15657" rx="11.2373225" ry="11.2509835"></ellipse>
                                <ellipse id="Oval" stroke="#B00032" stroke-width="2" fill="#B11844" cx="337.681542" cy="124.323367" rx="10.6754564" ry="10.6884343"></ellipse>
                                <ellipse id="Oval" stroke="#B00032" stroke-width="2" fill="#B11844" cx="609.624746" cy="169.327301" rx="10.6754564" ry="10.6884343"></ellipse>
                                <ellipse id="Oval" stroke="#B00032" stroke-width="2" fill="#B11844" cx="658.507099" cy="76.5066876" rx="8.98985801" ry="9.00078678"></ellipse>
                            </g>
                            <g id="Yellow" transform="translate(73.042596, 0.000000)">
                                <ellipse id="Oval" fill="#F8E71C" cx="536.020284" cy="1144.22502" rx="5.61866126" ry="7.87568843"></ellipse>
                                <ellipse id="Oval" fill="#F8E71C" cx="209.014199" cy="1298.36349" rx="5.61866126" ry="5.62549174"></ellipse>
                                <ellipse id="Oval" fill="#F8E71C" cx="446.121704" cy="983.335956" rx="7.86612576" ry="7.87568843"></ellipse>
                                <ellipse id="Oval" fill="#F8E71C" cx="21.3509128" cy="541.172305" rx="7.86612576" ry="10.1258851"></ellipse>
                                <ellipse id="Oval" fill="#F8E71C" cx="331.501014" cy="120.385523" rx="6.74239351" ry="6.75059009"></ellipse>
                                <ellipse id="Oval" fill="#F8E71C" cx="260.705882" cy="9.00078678" rx="8.98985801" ry="9.00078678"></ellipse>
                                <ellipse id="Oval" fill="#F8E71C" cx="647.269777" cy="601.927616" rx="10.1135903" ry="10.1258851"></ellipse>
                                <ellipse id="Oval" fill="#F8E71C" cx="276.438134" cy="423.036979" rx="6.74239351" ry="9.00078678"></ellipse>
                                <ellipse id="Oval" fill="#F8E71C" cx="8.98985801" cy="117.010228" rx="8.98985801" ry="9.00078678"></ellipse>
                                <ellipse id="Oval" fill="#F8E71C" cx="282.056795" cy="1092.4705" rx="4.49492901" ry="5.62549174"></ellipse>
                            </g>
                        </g>
                    </g>
                    <path d="M335.779214,-134.739008 L478.524233,175.855406 C649.455339,205.165517 754.326054,251.880743 793.136378,316.001084 C851.351863,412.181595 852.396007,536.15544 852.396007,664.855231 C852.396007,929.454299 827.704241,1131.28866 778.32071,1270.35831 C867.958775,1321.95676 902.714175,1364.63612 882.586908,1398.39641 C862.459641,1432.1567 889.780835,1446.08909 964.550491,1440.19359 L938.954523,872.817226 L1178.68782,306.380144 L761.049978,-92.2835136 L335.779214,-134.739008 Z" id="Path-13" fill-opacity="0.25" fill="#000000" mask="url(#mask-2)"></path>
                </g>
                <g id="Flames" transform="translate(23.000000, 661.000000)">
                    <mask id="mask-4" fill="white">
                        <use xlink:href="#path-3"></use>
                    </mask>
                    <use id="Combined-Shape" fill="#D0232E" xlink:href="#path-3"></use>
                    <path d="M670.386581,408.62721 C704.573596,376.90613 723.121985,344.017722 726.031747,309.961985 C730.39639,258.878379 694.447213,225.550432 646.762683,230.507998 C599.078153,235.465564 592.279903,284.33227 558.893337,309.961985 C525.506772,335.591699 462.3068,363.430378 405.884922,359.89348 C349.463043,356.356582 291.331859,336.374584 212.339617,349.35261 C133.347374,362.330636 74.7122673,417.165985 65.8136634,440.284731 C59.8812609,455.697228 56.5159528,425.386521 55.7177392,349.35261 L168.021291,276.40845 L332.52352,247.279968 L377.322502,282.26119 C480.238345,264.279458 544.380442,218.431118 569.748795,144.716169 C607.801324,34.1437457 489.944674,30.1780829 441.861542,89.0516618 C413.54494,123.722858 348.777831,189.54479 292.640212,189.54479 C255.215133,189.54479 258.198627,151.55834 301.590693,75.585439 L455.163775,-60.7399347 L823.730234,0.220281654 L911.06152,94.5079058 L863.321771,340.893685 L670.386581,408.62721 Z" id="Path-7" fill="#D06C21" mask="url(#mask-4)"></path>
                    <path d="M521.368508,425.091671 C520.759131,468.489958 508.075217,493.019466 483.316764,498.680196 C446.179086,507.171291 413.688506,474.909183 366.045603,523.606322 C334.283667,556.071081 334.283667,536.655626 366.045603,465.359958 L446.890347,447.765471 L521.368508,425.091671 Z" id="Path-8" fill="#D06C21" mask="url(#mask-4)"></path>
                    <path d="M-9.83785598,181.86341 C-1.91588777,230.263865 23.8833155,259.800665 67.5597538,270.47381 C98.3414438,277.995884 126.816225,240.539189 161.475485,225.22365 C184.581659,215.013291 214.067553,216.29449 249.933169,229.067249 L220.172408,154.464486 L118.766396,154.464486 L12.9367334,170.940788 L-9.83785598,181.86341 Z" id="Path-9" fill="#D06C21" mask="url(#mask-4)"></path>
                    <path d="M788.291511,275.240848 C843.424797,210.008483 873.600939,146.01794 878.819936,83.2692193 C886.648432,-10.8538615 600.237053,-13.0947982 570.377066,28.5544058 C623.105298,23.2393335 668.307128,29.9122842 689.539731,40.8194811 C711.040509,51.8644398 726.893901,62.5690035 726.893901,83.2692193 C726.893901,103.969435 667.84795,96.2722138 645.824584,106.742406 C623.801217,117.212598 597.970902,137.376165 582.213066,175.475531 C641.197558,145.982152 689.539731,136.127251 742.085959,144.963481 C777.116777,150.854301 792.518628,194.28009 788.291511,275.240848 Z" id="Path-10" fill="#F8E71C" mask="url(#mask-4)"></path>
                    <path d="M442.247356,252.615066 C449.39716,231.39733 443.045123,231.39733 423.191246,252.615066 C422.61249,266.030944 406.029461,279.341736 373.442159,292.547442 C340.854856,305.753148 287.138797,299.984283 212.293982,275.240848 L157.090584,308.863122 C210.412235,327.64757 273.032813,333.232768 344.952318,325.618716 C393.969186,320.429345 431.522649,284.441669 442.247356,252.615066 Z" id="Path-11" fill="#F8E71C" mask="url(#mask-4)"></path>
                </g>
                <g id="Eyes" transform="translate(228.000000, 268.000000)">
                    <ellipse id="Oval" fill="#000000" transform="translate(268.404637, 197.283759) rotate(-22.000000) translate(-268.404637, -197.283759) " cx="268.404637" cy="197.283759" rx="43.8812195" ry="110.345474"></ellipse>
                    <path d="M159.12866,404.051512 C194.249092,404.033928 219.464274,337.428889 219.504267,257.544809 C219.534445,197.264298 191.138922,110.817514 156.01849,110.835099 C120.898058,110.852683 99.3007293,177.727057 99.2607369,257.611137 C99.2207445,337.495217 124.008227,404.069097 159.12866,404.051512 Z" id="Oval" fill="#000000" transform="translate(159.382490, 257.443306) rotate(-42.000000) translate(-159.382490, -257.443306) "></path>
                    <ellipse id="Oval" fill="#FFFFFF" transform="translate(264.520640, 155.752461) rotate(-26.000000) translate(-264.520640, -155.752461) " cx="264.52064" cy="155.752461" rx="19.128712" ry="48.4143655"></ellipse>
                    <ellipse id="Oval" fill="#FFFFFF" transform="translate(189.456838, 246.102125) rotate(-42.000000) translate(-189.456838, -246.102125) " cx="189.456838" cy="246.102125" rx="19.1336414" ry="48.4019127"></ellipse>
                    <path d="M36.1175621,142.303263 C51.0778951,125.347361 77.6969096,133.102862 87.5555538,128.382579 C97.4141979,123.662296 93.7099301,118.926651 91.44821,115.691686 C89.1864899,112.456722 59.0522715,95.5742015 37.1880955,99.0221111 C15.3239195,102.470021 -2.70210594,125.291167 1.07095539,150.329696 C3.58632961,167.02205 11.6468163,178.8458 25.2524155,185.800947 C22.5222912,168.106426 26.1440067,153.607198 36.1175621,142.303263 Z" id="Path-12" fill="#000000"></path>
                    <path d="M211.32591,64.0707683 C226.284506,47.1299995 252.919407,54.8953399 262.780136,50.1821219 C272.640864,45.468904 268.932556,40.7335375 266.668197,37.4988977 C264.403838,34.2642579 234.24758,17.3742496 212.375268,20.8096537 C190.502957,24.2450578 172.480221,47.046892 176.267513,72.0760301 C178.792375,88.7621222 186.862414,100.584582 200.47763,107.543411 C197.73742,89.8554951 201.353513,75.3646142 211.32591,64.0707683 Z" id="Path-12-Copy" fill="#000000" transform="translate(222.516579, 63.947262) scale(-1, 1) rotate(42.000000) translate(-222.516579, -63.947262) "></path>
                </g>
            </g>
        </g>
    </g>
</svg>