<?xml version="1.0" encoding="utf-8"?>
<!-- Generator: Adobe Illustrator 16.0.0, SVG Export Plug-In . SVG Version: 6.00 Build 0)  -->
<!DOCTYPE svg PUBLIC "-//W3C//DTD SVG 1.1//EN" "http://www.w3.org/Graphics/SVG/1.1/DTD/svg11.dtd">
<svg version="1.1" xmlns="http://www.w3.org/2000/svg" xmlns:xlink="http://www.w3.org/1999/xlink" x="0px" y="0px" width="16px"
	 height="16px" viewBox="0 0 16 16" enable-background="new 0 0 16 16" xml:space="preserve">
<g id="outline">
	<path fill="#F6F6F6" d="M13.547,0H8C7.031,0,6,0.701,6,2H2C1.031,2,0,2.701,0,4v8c0,1.299,1.031,2,2,2h2c0,1.299,1.031,2,2,2h6
		c1.299,0,2-1.03,2-2v-2c1.299,0,2-1.03,2-2V2.062L13.547,0z"/>
</g>
<g id="icon_x5F_bg">
	<g>
		<path fill="#424242" d="M10.625,5h-4.66C5.965,5,5,5,5,6c0,0.805,0,5.442,0,8c0,1,0.965,1,0.965,1s5,0,6,0S13,14,13,14V7.137
			L10.625,5z M12,9v1v4H6V6h4v2h2V9z"/>
		<path fill="#424242" d="M4,12H2V4h4h1.736L6.625,3h-4.66C1.965,3,1,3,1,4c0,0.805,0,5.442,0,8c0,1,0.965,1,0.965,1S2.878,13,4,13
			V12z"/>
		<path fill="#424242" d="M12.625,1h-4.66C7.965,1,7,1,7,2h0.547L8,2.381V2h4v2h2v1v1v0.062V10v0.995C14.962,10.97,15,10,15,10
			V3.137L12.625,1z"/>
	</g>
</g>
<g id="icon_x5F_fg">
	<g>
		<polygon fill="#F0EFF1" points="6,6 10,6 10,7.96 12,7.996 12,14 6,14 		"/>
		<path fill="#F0EFF1" d="M4,6c0-1.299,1.031-2,2-2H2v8h2V6z"/>
		<polygon fill="#F0EFF1" points="12,3.96 12,2 8,2 8,2.381 9.927,4 11.547,4 14,6.062 14,3.996 		"/>
	</g>
</g>
</svg>
