<?xml version="1.0" encoding="utf-8"?>
<!-- Generator: Adobe Illustrator 16.0.0, SVG Export Plug-In . SVG Version: 6.00 Build 0)  -->
<!DOCTYPE svg PUBLIC "-//W3C//DTD SVG 1.1//EN" "http://www.w3.org/Graphics/SVG/1.1/DTD/svg11.dtd">
<svg version="1.1" xmlns="http://www.w3.org/2000/svg" xmlns:xlink="http://www.w3.org/1999/xlink" x="0px" y="0px" width="48px"
	 height="48px" viewBox="0 0 48 48" enable-background="new 0 0 48 48" xml:space="preserve">
<g id="outline">
	<polygon fill="#F6F6F6" points="23.126,6 7.5,15.923 7.5,32.077 23.126,42 24.873,42 40.501,32.077 40.501,15.923 24.873,6 	"/>
</g>
<g id="color_x5F_decoration">
	<path fill="#652D90" d="M24,9l-13.5,8.572v12.855L24,39l13.5-8.572V17.572L24,9z M22.5,34.494l-9-5.716v-8.446l9,5.715V34.494z
		 M15.425,18L24,12.553L32.575,18L24,23.446L15.425,18z M34.5,28.778l-9,5.716v-8.446l9-5.715V28.778z"/>
</g>
<g id="icon_x5F_fg">
	<g>
		<polygon fill="#F0EFF1" points="32.575,18 24,23.446 15.425,18 24,12.554 		"/>
		<polygon fill="#F0EFF1" points="13.5,20.332 22.5,26.048 22.5,34.494 13.5,28.778 		"/>
		<polygon fill="#F0EFF1" points="25.5,34.494 25.5,26.048 34.5,20.332 34.5,28.778 		"/>
	</g>
</g>
</svg>
